<?xml version="1.0" encoding="UTF-8"?>
<svg id="VF_Logo_AW" xmlns="http://www.w3.org/2000/svg" version="1.1" viewBox="0 0 1177.85 311.81">
  <!-- Generator: Adobe Illustrator 29.8.6, SVG Export Plug-In . SVG Version: 2.1.1 Build 1)  -->
  <path d="M297.64,155.91c0,78.27-63.46,141.73-141.74,141.73S14.17,234.18,14.17,155.91,77.63,14.17,155.9,14.17c21.73,0,42.31,4.89,60.71,13.63-2.43-.82-6.4-1.14-10.2-1.13-29.49.1-62.01,12.71-85.75,32.37-24.34,20.16-43.38,54.13-43.27,89.42.18,53.37,40.69,86.61,79.64,86.48,48.07-.16,76.52-39.64,76.4-75.67-.12-36.03-19.71-62.07-62.87-72.58-.09-.45-.17-1.41-.17-2.31-.09-27.23,20.43-51.23,46.22-56.58,47.91,22.74,81.03,71.56,81.03,128.11Z"/>
  <g>
    <path d="M389.17,214.62l-43.34-103.42h28.32l27.03,68.66,26.17-68.66h27.03l-42.05,103.42h-23.17Z"/>
    <path d="M555.99,162.48c0,6.73-1.04,13.34-3.11,19.85-2.07,6.51-5.15,12.34-9.22,17.49-4.08,5.15-9.22,9.3-15.45,12.44-6.22,3.15-13.48,4.72-21.78,4.72s-15.56-1.57-21.78-4.72c-6.22-3.15-11.37-7.3-15.45-12.44-4.08-5.15-7.16-10.98-9.22-17.49-2.08-6.51-3.11-13.12-3.11-19.85s1.03-13.3,3.11-19.74c2.07-6.44,5.15-12.19,9.22-17.27,4.08-5.08,9.22-9.15,15.45-12.23,6.22-3.07,13.48-4.61,21.78-4.61s15.52,1.54,21.67,4.61c6.15,3.08,11.3,7.15,15.45,12.23,4.15,5.08,7.26,10.84,9.33,17.27,2.07,6.44,3.11,13.02,3.11,19.74ZM529.82,162.37c0-4.31-.5-8.39-1.5-12.27-1-3.88-2.5-7.21-4.51-10.01-2.01-2.8-4.43-5.03-7.3-6.67s-6.22-2.48-10.08-2.48-7.22.83-10.08,2.48c-2.86,1.65-5.29,3.87-7.29,6.67-2.01,2.8-3.51,6.14-4.51,10.01-1,3.88-1.5,7.96-1.5,12.27s.5,8.58,1.5,12.38c1,3.8,2.47,7.14,4.4,10.01,1.93,2.87,4.36,5.13,7.3,6.78,2.93,1.65,6.33,2.47,10.19,2.47s7.22-.83,10.08-2.47,5.29-3.91,7.3-6.78c2-2.87,3.51-6.21,4.51-10.01,1-3.8,1.5-7.93,1.5-12.38Z"/>
    <path d="M638.06,214.62l-1.08-7.94c-2.43,2.72-5.64,5.11-9.62,7.18-3.99,2.07-8.7,3.11-14.12,3.11-7.13,0-13.41-1.5-18.82-4.51-5.42-3-9.98-7.01-13.69-12.01-3.71-5-6.52-10.8-8.45-17.38-1.92-6.58-2.89-13.44-2.89-20.6,0-6.72,1-13.3,2.99-19.74,2-6.44,5.03-12.19,9.09-17.27,4.06-5.08,9.16-9.15,15.3-12.23,6.13-3.07,13.33-4.61,21.6-4.61,5.42,0,11.26.99,17.54,2.98v-40.09h26.61v143.11h-24.45ZM635.9,133.95c-5.12-2.01-9.89-3.01-14.3-3.01s-8.47.86-11.74,2.59c-3.27,1.72-5.98,4.05-8.11,6.99-2.13,2.94-3.74,6.24-4.8,9.91-1.07,3.66-1.6,7.42-1.6,11.3,0,4.31.46,8.43,1.39,12.38.93,3.95,2.35,7.39,4.27,10.33,1.92,2.94,4.34,5.31,7.26,7.1,2.92,1.79,6.37,2.69,10.35,2.69,3.27,0,6.62-.9,10.03-2.69,3.41-1.79,5.83-3.91,7.26-6.35v-51.24Z"/>
    <path d="M739.54,214.52l-1.07-7.72c-2.87,3.18-6.53,5.67-10.98,7.47-4.45,1.8-9.33,2.71-14.64,2.71-4.45,0-8.73-.75-12.81-2.25-4.09-1.5-7.71-3.65-10.87-6.44-3.16-2.79-5.71-6.22-7.64-10.3-1.94-4.08-2.91-8.69-2.91-13.84s1-9.69,3.01-13.62c2.01-3.93,4.74-7.26,8.18-9.98,3.45-2.72,7.39-4.94,11.84-6.65,4.45-1.72,9.12-3,14-3.86,3.45-.71,7.21-1.25,11.31-1.61,4.09-.35,7.5-.68,10.23-.97v-1.5c0-5.72-1.48-9.79-4.42-12.23-2.94-2.43-7.01-3.65-12.18-3.65-3.02,0-5.9.36-8.63,1.08-2.73.71-5.18,1.61-7.33,2.68-2.16,1.07-4.06,2.14-5.71,3.22-1.66,1.07-2.98,2.04-3.99,2.9l-8.8-18.67c1.14-1,2.89-2.21,5.26-3.65,2.36-1.43,5.22-2.82,8.58-4.18,3.36-1.36,7.15-2.5,11.37-3.43,4.22-.93,8.76-1.39,13.62-1.39,5.72,0,10.94.75,15.66,2.25,4.72,1.5,8.8,3.86,12.23,7.07,3.43,3.21,6.12,7.29,8.05,12.21,1.93,4.93,2.9,10.9,2.9,17.89v66.45h-24.25ZM737.41,166.13c-2.88.15-5.83.4-8.85.75-3.02.36-5.9.82-8.64,1.39-5.76,1.14-9.75,3.11-11.99,5.9-2.23,2.79-3.35,5.83-3.35,9.12s1.26,6.19,3.78,8.26c2.52,2.07,6.08,3.11,10.69,3.11,3.45,0,6.8-.71,10.04-2.14,3.24-1.43,6.01-3.22,8.32-5.37v-21.03Z"/>
    <path d="M845.99,95.11c-.86-.43-2.54-1.04-5.04-1.82-2.5-.79-5.83-1.18-9.98-1.18-3.72,0-6.83,1.11-9.33,3.33-2.5,2.22-3.76,5.83-3.76,10.83v4.94h22.32v21.46h-22.1v81.96h-26.6v-81.96h-13.73v-21.46h13.73v-5.58c0-6.72.86-12.41,2.57-17.06,1.72-4.65,4.11-8.44,7.19-11.37,3.07-2.93,6.68-5.08,10.83-6.44,4.15-1.36,8.65-2.04,13.52-2.04,6.44,0,11.76.61,15.98,1.82,4.22,1.22,6.68,2.04,7.4,2.47l-3,22.1Z"/>
    <path d="M944.69,162.48c0,6.73-1.04,13.34-3.11,19.85-2.07,6.51-5.15,12.34-9.22,17.49-4.08,5.15-9.22,9.3-15.45,12.44-6.22,3.15-13.48,4.72-21.78,4.72s-15.56-1.57-21.78-4.72c-6.22-3.15-11.37-7.3-15.45-12.44-4.08-5.15-7.16-10.98-9.22-17.49-2.08-6.51-3.11-13.12-3.11-19.85s1.03-13.3,3.11-19.74c2.07-6.44,5.15-12.19,9.22-17.27,4.08-5.08,9.22-9.15,15.45-12.23,6.22-3.07,13.48-4.61,21.78-4.61s15.52,1.54,21.67,4.61c6.15,3.08,11.3,7.15,15.45,12.23,4.15,5.08,7.26,10.84,9.33,17.27,2.07,6.44,3.11,13.02,3.11,19.74ZM918.51,162.37c0-4.31-.5-8.39-1.5-12.27-1-3.88-2.5-7.21-4.51-10.01-2.01-2.8-4.43-5.03-7.3-6.67-2.86-1.65-6.22-2.48-10.08-2.48s-7.22.83-10.08,2.48c-2.86,1.65-5.29,3.87-7.29,6.67-2.01,2.8-3.51,6.14-4.51,10.01-1,3.88-1.5,7.96-1.5,12.27s.5,8.58,1.5,12.38c1,3.8,2.47,7.14,4.4,10.01,1.93,2.87,4.36,5.13,7.3,6.78,2.93,1.65,6.33,2.47,10.19,2.47s7.22-.83,10.08-2.47,5.29-3.91,7.3-6.78c2-2.87,3.51-6.21,4.51-10.01,1-3.8,1.5-7.93,1.5-12.38Z"/>
    <path d="M1027.27,214.62v-59c0-7.86-1.65-13.94-4.94-18.24-3.29-4.29-7.87-6.44-13.73-6.44-4.15,0-7.98,1.07-11.48,3.22-3.51,2.15-6.54,4.51-9.12,7.08v73.38h-26.6v-103.42h24.24l1.29,8.15c4.15-3.43,8.83-6.08,14.05-7.94,5.22-1.86,10.48-2.79,15.77-2.79s10.44.83,15.02,2.47c4.57,1.65,8.51,4.26,11.8,7.83,3.29,3.58,5.83,8.23,7.62,13.95,1.79,5.72,2.68,12.59,2.68,20.6v61.15h-26.6Z"/>
    <path d="M1096.52,169.56c.57,8.73,3.3,15.02,8.18,18.88,4.88,3.86,11.2,5.79,18.95,5.79,3.59,0,6.96-.32,10.12-.97,3.16-.64,5.96-1.46,8.4-2.47,2.44-1,4.53-2,6.25-3,1.72-1,3.01-1.93,3.88-2.79l7.08,21.67c-1,.71-2.61,1.68-4.83,2.89-2.22,1.22-4.97,2.36-8.26,3.43-3.29,1.07-7.16,2-11.59,2.79-4.43.78-9.3,1.18-14.59,1.18-6.72,0-13.12-1.07-19.2-3.22-6.08-2.14-11.41-5.47-15.98-9.98-4.58-4.5-8.23-10.12-10.94-16.84-2.72-6.72-4.08-14.73-4.08-24.03,0-8.72,1.25-16.45,3.75-23.17,2.5-6.72,5.93-12.37,10.3-16.95,4.36-4.58,9.44-8.08,15.23-10.51,5.79-2.43,11.98-3.65,18.56-3.65s12.66,1.07,18.24,3.22c5.58,2.14,10.4,5.47,14.48,9.98,4.08,4.51,7.3,10.34,9.65,17.49,2.36,7.15,3.54,15.66,3.54,25.53v4.72h-67.15ZM1136.64,150.47c-.29-3.58-1.05-6.69-2.26-9.33-1.22-2.65-2.73-4.79-4.53-6.44-1.8-1.64-3.74-2.86-5.83-3.65-2.08-.78-4.21-1.18-6.36-1.18-4.6,0-8.99,1.72-13.16,5.15-4.17,3.44-6.62,8.58-7.33,15.45h39.48Z"/>
  </g>
</svg>